<svg xmlns="http://www.w3.org/2000/svg" class="h-6 w-6" fill="none" viewBox="0 0 54 54" stroke="currentColor" stroke-width="2">
    <path d="M47.8 6.043a.733.733 0 0 0-.526-.225h-7.047a48.425 48.425 0 0 0-.086-5.15.728.728 0 0 0-.725-.668H8.584a.729.729 0 0 0-.725.668 48.437 48.437 0 0 0-.086 5.15H.727a.728.728 0 0 0-.727.76c.032.738.9 18.172 11.2 23.758a.727.727 0 0 0 1.074-.653A4.206 4.206 0 0 1 13.2 27a2.1 2.1 0 0 1 1.471-.572 13.933 13.933 0 0 0 1.254 1.094c3.653 2.787 5.063 6.047 4.19 9.686a7.721 7.721 0 0 1-4.687 5.188c-2.565 1.055-3.92 2.744-3.92 4.883a.729.729 0 0 0 .728.727h23.527a.728.728 0 0 0 .727-.727c0-2.139-1.356-3.828-3.92-4.883a7.724 7.724 0 0 1-4.686-5.196c-.874-3.639.535-6.9 4.19-9.686a14.353 14.353 0 0 0 1.252-1.092A2.136 2.136 0 0 1 34.8 27a4.207 4.207 0 0 1 .927 2.684.728.728 0 0 0 1.075.656C47.105 24.749 47.968 7.315 48 6.577a.733.733 0 0 0-.2-.534zm-35.623 19.92a4.808 4.808 0 0 0-1.236 2.521c-7.6-5.053-9.155-17.947-9.433-21.211H7.84c.312 5.4 1.543 12.922 5.667 17.9a3.292 3.292 0 0 0-1.33.79zm19.014.4c-5.175 3.947-5.424 8.262-4.722 11.184a9.17 9.17 0 0 0 5.547 6.191c1.672.689 2.656 1.633 2.936 2.811h-21.9c.279-1.178 1.263-2.121 2.936-2.811a9.171 9.171 0 0 0 5.548-6.191c.7-2.924.451-7.236-4.723-11.184-7.978-6.084-7.7-21.508-7.541-24.9h8.206c-.073 3.648-.185 19.3 3.012 25.805a.727.727 0 1 0 1.3-.643c-3.02-6.154-2.921-21.697-2.858-25.17h19.8c.168 3.397.444 18.817-7.541 24.904zm5.869 2.123a4.8 4.8 0 0 0-1.237-2.518 3.194 3.194 0 0 0-1.334-.781c4.127-4.98 5.359-12.506 5.671-17.91h6.333c-.276 3.26-1.831 16.153-9.433 21.205z" fill="#1a171b"/>
</svg>